<mxfile host="app.diagrams.net" modified="2021-05-17T00:16:29.252Z" agent="5.0 (Windows NT 10.0; Win64; x64) AppleWebKit/537.36 (KHTML, like Gecko) Chrome/90.0.4430.212 Safari/537.36" etag="fQGBHXp6NNolwA7S00D8" version="14.6.13" type="github">
  <diagram id="TU40wrcpnZRHi9yehscr" name="Page-1">
    <mxGraphModel dx="1422" dy="1894" grid="1" gridSize="10" guides="1" tooltips="1" connect="1" arrows="1" fold="1" page="1" pageScale="1" pageWidth="850" pageHeight="1100" math="0" shadow="0">
      <root>
        <mxCell id="0" />
        <mxCell id="1" parent="0" />
        <mxCell id="d-g0QsOcz5RB0tyn-y7D-1" value="" style="strokeWidth=1;shadow=0;dashed=0;align=center;html=1;shape=mxgraph.mockup.containers.browserWindow;rSize=0;strokeColor=#666666;strokeColor2=#008cff;strokeColor3=#c4c4c4;mainText=,;recursiveResize=0;" parent="1" vertex="1">
          <mxGeometry x="100" y="-230" width="680" height="730" as="geometry" />
        </mxCell>
        <mxCell id="d-g0QsOcz5RB0tyn-y7D-2" value="Page 1" style="strokeWidth=1;shadow=0;dashed=0;align=center;html=1;shape=mxgraph.mockup.containers.anchor;fontSize=17;fontColor=#666666;align=left;" parent="d-g0QsOcz5RB0tyn-y7D-1" vertex="1">
          <mxGeometry x="60" y="12" width="110" height="26" as="geometry" />
        </mxCell>
        <mxCell id="d-g0QsOcz5RB0tyn-y7D-3" value="https://www.draw.io" style="strokeWidth=1;shadow=0;dashed=0;align=center;html=1;shape=mxgraph.mockup.containers.anchor;rSize=0;fontSize=17;fontColor=#666666;align=left;" parent="d-g0QsOcz5RB0tyn-y7D-1" vertex="1">
          <mxGeometry x="130" y="60" width="250" height="26" as="geometry" />
        </mxCell>
        <mxCell id="d-g0QsOcz5RB0tyn-y7D-6" value="" style="whiteSpace=wrap;html=1;aspect=fixed;" parent="d-g0QsOcz5RB0tyn-y7D-1" vertex="1">
          <mxGeometry x="40" y="120" width="590" height="590" as="geometry" />
        </mxCell>
        <mxCell id="d-g0QsOcz5RB0tyn-y7D-7" value="" style="rounded=0;whiteSpace=wrap;html=1;" parent="d-g0QsOcz5RB0tyn-y7D-1" vertex="1">
          <mxGeometry x="70" y="140" width="540" height="60" as="geometry" />
        </mxCell>
        <mxCell id="d-g0QsOcz5RB0tyn-y7D-8" value="" style="whiteSpace=wrap;html=1;aspect=fixed;" parent="d-g0QsOcz5RB0tyn-y7D-1" vertex="1">
          <mxGeometry x="70" y="210" width="150" height="150" as="geometry" />
        </mxCell>
        <mxCell id="d-g0QsOcz5RB0tyn-y7D-9" value="" style="rounded=0;whiteSpace=wrap;html=1;" parent="d-g0QsOcz5RB0tyn-y7D-1" vertex="1">
          <mxGeometry x="245" y="210" width="365" height="150" as="geometry" />
        </mxCell>
        <mxCell id="d-g0QsOcz5RB0tyn-y7D-10" value="" style="whiteSpace=wrap;html=1;aspect=fixed;" parent="d-g0QsOcz5RB0tyn-y7D-1" vertex="1">
          <mxGeometry x="70" y="370" width="150" height="150" as="geometry" />
        </mxCell>
        <mxCell id="d-g0QsOcz5RB0tyn-y7D-12" value="" style="rounded=0;whiteSpace=wrap;html=1;" parent="d-g0QsOcz5RB0tyn-y7D-1" vertex="1">
          <mxGeometry x="245" y="370" width="205" height="150" as="geometry" />
        </mxCell>
        <mxCell id="d-g0QsOcz5RB0tyn-y7D-14" value="" style="rounded=0;whiteSpace=wrap;html=1;" parent="d-g0QsOcz5RB0tyn-y7D-1" vertex="1">
          <mxGeometry x="70" y="540" width="540" height="100" as="geometry" />
        </mxCell>
        <mxCell id="d-g0QsOcz5RB0tyn-y7D-15" value="" style="rounded=0;whiteSpace=wrap;html=1;" parent="d-g0QsOcz5RB0tyn-y7D-1" vertex="1">
          <mxGeometry x="70" y="660" width="540" height="40" as="geometry" />
        </mxCell>
        <mxCell id="d-g0QsOcz5RB0tyn-y7D-16" value="&lt;font style=&quot;font-size: 36px&quot; face=&quot;Georgia&quot;&gt;The Temptations&lt;/font&gt;" style="text;html=1;strokeColor=none;fillColor=none;align=center;verticalAlign=middle;whiteSpace=wrap;rounded=0;" parent="d-g0QsOcz5RB0tyn-y7D-1" vertex="1">
          <mxGeometry x="70" y="140" width="530" height="60" as="geometry" />
        </mxCell>
        <mxCell id="d-g0QsOcz5RB0tyn-y7D-18" value="" style="shape=image;verticalLabelPosition=bottom;labelBackgroundColor=#ffffff;verticalAlign=top;aspect=fixed;imageAspect=0;image=data:image/jpeg,/9j/4AAQSkZJRgABAQEBDgEOAAD/2wBDAAgGBgcGBQgHBwcJCQgKDBQNDAsLDBkSEw8UHRofHh0aHBwgJC4nICIsIxwcKDcpLDAxNDQ0Hyc5PTgyPC4zNDL/wAALCAF1AQsBAREA/8QAHwAAAQUBAQEBAQEAAAAAAAAAAAECAwQFBgcICQoL/8QAtRAAAgEDAwIEAwUFBAQAAAF9AQIDAAQRBRIhMUEGE1FhByJxFDKBkaEII0KxwRVS0fAkM2JyggkKFhcYGRolJicoKSo0NTY3ODk6Q0RFRkdISUpTVFVWV1hZWmNkZWZnaGlqc3R1dnd4eXqDhIWGh4iJipKTlJWWl5iZmqKjpKWmp6ipqrKztLW2t7i5usLDxMXGx8jJytLT1NXW19jZ2uHi4+Tl5ufo6erx8vP09fb3+Pn6/9oACAEBAAA/AOzbxJqv/P6/5Co/+Ei1TPN/N+Yp3/CQan3vp/wakbXdSP8Ay/T/APfVNbXNRwT9un/77rD1H4jW2kytFea44kAz5auWb9OlR2fxLtL5okj1W7Mki7ggydvsx6A/WtXSvFkmrRGWC8vAgYjLN1x16H6VuxTX08Alg1B5PVRIQR7VXOo3uSDdzgg8jeaX+0bz/n6m/wC+zTxqF33upv8Avs0f2lddPtM3r980f2jdYz9pm/77NIdRus/8fMv/AH8NAv7o/wDLzN/38NIb66xn7TN/32aZ/aF1j/j5m/7+Gj7ddHH+lTf99mlN3dYybmb/AL+GomvLof8ALzN/38NNF/df8/U3/fw/40v266/5+Jv+/h/xpft11j/j5m+vmGk+33QGPtMx/wC2hpn2+6HP2mb/AL+GgX91u/4+Jv8Av4f8akF7c97ib6+YaeL64/5+Jf8Avs05b64/57y/99mnC+uD1uJf++zUv2yfr9ol/wC+zSi8nwP38v8A32af9sn/AOe8n/fZrlXJyOetMJORzRvx0/nSmU/WuI8deJLrT1/s60V4pJo9wnBx9RXkT7t53k7iec9afHNPAN0Ujx5PVWI6VesPEWr6aYvseoXEKxElFV+AT146c16L4Y+JUlzcXFrqjFInQGPyQsQXHLA46mumv/FlrY6irC4DQrsRxK5MgB+nBHv1rr1ZSoIOQehqQ4Ao9qbkZxmmM2DmlD0buevFNyMn1p3anBvftTGINQtjHNGcYHtTqiYnJqKSVI1LO6ooGSWOAK5O/wDiLodjN5ccr3DA4PljgfjUUXxN02djHACJCBtEoxj+lWbLx/FcOqNFFnnKoCSvOBniuqstUtLyMsr7WHB9DV/BGMjr/KpAePanCpARisFgM1E4OaiPFVr64FpZT3DDiKNnIJ9BmuUvtNj1jwqdVv4ncLbBy0LbzGSclucDGMcV5newrFdTJKNrxcYxgsPf3xVmDSLzVCTZ2Ny6AEgiEn9elOHg/Xyfl0u5292ZNo/Wuq0P4aXOYbvUZgmCGEScn8TXvem+GNK1LQGtLmziaKRcEFR19frWBFZnSXOmZJFqAiMTyy44NWA/y808OATTWYbjTSfTpR0NOHP0pQO/alxwOKb+FIcBaYQTUbccGlBx1NRyuEQsx2qASSfSvLdZ1LVfHGrvpWipiwhOXlbhWxxuJ9PQVTl+Ft6v3b6Nm6nKEflWTqPgHWdP+dNswHdOtY6R6to86zqs0T56jPP1rrPDPiwF3trtUjmOWSV2KgtjjNeo6Jrq3QMEh3BRyc8Z9jXRD0pQc9KMmslselQvx2qFhx7VgeMHki8K6g0RAJiwSfQkZqvpE8mo+GLSziKtbMqrMkaBizL2I6ehyeOldvoPhHRLfTZd9pFLdSZLSSKGIA7Z7Vo2FhAJ9igAdMdq07iwg8rkj8aw9Qs4reIuCCMcAVu+ENRWe1MXTaeKzvFG5PEKMoAVrfk+4PFZgfinBs5pxPfNIPypQ2GHoaeuM4qTtyKQ57UvI+tMOTkCmgevNMdcnAFRjg4rm/G09wuiC0tGYXF7KsCBepz1/Sus8FeCrfw74cS3Ygzv80r/AN5vT8K0BpiGQgYIB7VFeaPEIicc47iuG1zSkjV8qMYyOKZo3hrwhc6VcXOoRpdXQjYqobBRgPT1rkPDGsbFigeRUAmKhS/PB469a9b025E9msg69Dg1eHTNG1uxAFZsi9fSoXU4qFl461n6nbfa9OuoCAfMiZcH6cVzXhCQ2eiIisXaRl3IWxkYxjjqBXpmkR3cFqQ6En+HPvTbNLmPUpI5jjBzya6GeOM23LAvjjBrFvIPM050Zwrg5BNYmheM9A8PzvbXuowqd/UHNX/F2uacl1p16t7G1teExRSKchnJGB+tQNuRyrYyDjrmnqecU8kcUEgn2oyBjinqwNShuOBTgc07jHHFRsMDdTMnBNNbJ5phHNVPKjk8RaTJIAVieR8HpnbxmupbWrNZGie7iRh2ZsVZsvJlfMbI+ecq2at3UQEXORx1rzvxSriOQrvP9a8cu9UutPvneNijHj8Pes/TrgLcNC7IFcl1ZuPmr3Pwpk6PGxfdnHfr71voc1KGIFZ7LxzVd1wKhdearTtKq4it1nZ2C7SxBAPUj3rL8P6euneMbXTJl3W+S0brwTk/dbtx29a9N1nVLfR0KRoPM2/IMZFeT6td2k1xPLe6pcRuWwWMhJyegCgVlaHq82n6nETf31xbTDdC0qMN6eoz1FdV421G/sNOt5bRlZ71lijLH5Ru9a4x/Ddrpeq2Vte6RdXV1eDzJLmSTy4wuOSDghfTnmu81TwWjfD5LGSCTEF2kkG5gWRG4zleDgN+OKuqNqBewAFPU85p+abkn6VFcXcNtEXnmSJexdsCsn/hMdHj3Kbguy8NsQkZ+tXLXxTpE52i6Ct/ddSDWtDeQzgNFKjg+hqfOaQ80zGc008dKbnkcVRkmeG9ZnCGCOLeDjkHOD+GK5fUdV8OajK8k802xgSsxXg4IBwfYkVr+HLy6tdQW2sW85GXchJ7DrW34k8YXFlbNC6Asowdh7155cLrmvSgx3U9vB6kZFcrq3h6/jvBBNcLOZDiOToS3piueubaS1ntvOjYbjnaeDjNfQfhm0Nn4fsoioDeWGI9zzW6qnGSB7U8HjkVVZcVDImaryR47UyIrHMrN90HnHXFX9M07TLF4porQ+ezNsuDyCc5/A1sXtsuqxJMCMgbSD3rmL3whCpuj5Nu9vd486KVMq5HQn3FRWnhi681Li+k/cQR+XbwooVI19AK1rzSbDXdLi065LIofCSLwY27EfQ4rn77whM1ytpqGqpNPDgttZlB7jPpXeyFv+EVlSR1ZgoAwc8dq5XaetOACil4rhPF3jT+zXex01h9oX/WSkZCew968yutaubmcy3ErTyFslpGLf5FV5NTuSNxIbd6gVbtfEEqkiYbuMDnFWV8UzW7A2zyxsOhDcV3Xgz4jC8uE07WGCSOcRT9AT/db0+temD2NKVyOOtQyLgVH07daydYvTbBI40DPIrDp2rFsdKjvTbx39olxbWxLRI44Qk5OB9a6K0dV1hp1Xa75UhRwq9643VHmvPEEzElog+Cp+tW/FH2i30aIaVdJ5xOJVf5RtOMFRjtzxnvXm0l5qMt0bd5ZJfLfKynjOK0PF0zWraFdKENwbcykEZGd+eRXrvg/V73XPDtveX8MEczZGYU2hlHQ49a6JQelPwaZJGAOtQtGcZqCSP05qpKhxjFWLdb6/txbQvn7P8AvFUttzz0rTsdWh022lW6YLtY4yatw69YvbqV2sW5x1rCvdTlnBvL2eVLNTtMUClio7Egdazbjx94f0vT5AUuTtJCSPCy7j7ZFclP8U7jxLf2NpBp3llJcyXB6tGARj+Rrf8AD+r3mqPcBnYWqthV9a3tppSv51zvi7Xf7C0dnTBuJcpED646/hXh13M88rneWAPU+vequx3bG0k9sCntp92qqzQOqscAkdas/wDCPat9m+0ixmMWN24DtWcQy9cikBwete6/DbxM2taH9lnObqywjMTkuvY/XtXbqxNJIoI96rspAGPWue1WSNdYtllOB5ZP61rx3kQjCxqv3eoFR6Pd6RLBeStdjzEYrk8ZNcncyQ2d0mrGRJLKSdYtgPPJxkfnW5q2m7o98YBjPYjpXHy2MH25YpNoWRwOnSsHxtayah43g0q0jJ8uKG3RVHTPP9a9z0nTk07TbeziA2QxhB74FX1QjmnBeOg/Oh049MVC6EDFQtGcVUkiIp+l3Dwa3BbqFInSRWz1BC5H8qydfwyTI2SHGR7msCwvPItpJIW+dEOIz0DUvhufxJeRyRJC+ANwlwuHHfqRz7V0eoaBqt1Yr59rduQpLKZIkU4/lXmV/Y6hYBWm0dYI4n3idJCz/MpxGe3ofau78H20iaFFLINryndj2ro1XApSo4ryL4n3jPrsduucRQjGOxY//qr0n4c/D/QLrwhFNd2/2qedS0hdR8p9BWvc+CNE0qQG1s4lk9SueKePCUEsRBjTy2527RgH/Gs6+0mOJDEFCgcYxXA+JdGt3iKvCjY6HbXl2pWi2txtUcEV1fwrvja+LhbEkJdRMmPUjkfyNe549BSkcU0r+dcd4xhKXVlKB1DLn34NZVs15b3EMM3nM05/diFCQfb6104tNNbTpINVt0kQ/NtuEYEH9K4+5g0jTruOSG1tHWFhIkY42kdDjpmt5vElvc2CyxNlXGceh71wb6g+p+KbaONiI/OHTvzXpnh3wu48TX3iaWeOSG8XZBCE+6FwNxJ78cY9a7VYwPYVIIhjinCPA606SHJ+lV2jxniojGcnjiqN9IltbyzSnCRoXY+gAzXEW+tvfQfbrdjHM7pc256lOBj9Qf1rpPNtfEukSX0AwudtxED81tL/APEnqD6V5Vffa9F1qSEkjdwAT8pHtXc6Rc3NzpqFYWWSPBMa/wAQ9RWnf+NEhhkim+3BghGDESxP4CuasryfW7WRLiB7W2Mw8tJnwzk11FrqtrCEtnjMOwBQvYCtSK5tpmCJMhb0zzU5TNeLfEuHy/FMjOMbokKn14r1L4Qa/nQxazH7owoDZwK7Ge8+1ajgISM4rdjRZLcKBgkcexrnNcjRcMFPvgd68y8RxSASHBCkV5L4hI+0rgc4q/8ADhS/jzTcHoXP/jpr6IC5OMUbc03HNZmvaUNW0uSAECZfnjb0Yf5xXL2d1LGkLsWiaA/MwONpFekWPihJLNfNuLa4G378oHB/rXnnivU7DXrxLWbTrMANktCm1iMY5YdBXE6tcWGmHy7clePug8Yrl9P1FrfUGvFA3qCsK/3nPA/LrX0j4b/dTNoikmSysrcyAn/lqyliPrgitoIe4qRU4xinbPb9KnkjwMev61XaIelQsgBz2rjPG91/xTmoCNsBozGp9SeDXiGn69d6bFDCw3QwkgeoQnP6Hn8TXT6d4tudA1eLWdMdX3jbcQH7ky9wf8a9F1Dw3o/xK0Aap4dnSG4H+stn4Mb/AN0+n8jXAHWtf8BXsdrq2nyoqcBscMPY1Pf/ABMn125htdPtAHkO0huBVi60ee4+Gut61LcKb6wv43haJjtTbjcB6n5v0osfGOia7DbWtzI0F86fNuXCh/Td+tabrLb4SU7k7PWrpGvva3cNjqEhaGfi3uG67v7jH19D3rmPi5pMiva6qikxbfKcjsRyP61tfCXRpY7GO7mciOYbs9kA75rv5fEGgC+2rqcIZTgjd3rprO6tJ4FltrtJU6gq2aqapNZCCUzOo7nmvG/EnjDQTcSWiRXEj7iPkTOa8s8RYlcTpBNFGSQBIMHFP8EavBoniqzvLiIyJu8vg427uN34V9JllQF2YKoHJPSsu98TaNYLma/h3f3VOTXLaj8TbCLK2UDTv23HArm7jxfrWsTCJZ/IjJ+5Dx+tdl4dt1tbCO5vAstpLKYtzHOG64P17V0M3hfw3cxmcMsYxnarcV554on0fSN0FvPgE/MF6kV5VqV+b26d1BCE8DOcCvR/h/8ADpxbDxV4ijaHTbYedFC4w0uOQSP7v86fpnjq6g1fUNQ/5b3l2ZWwPuDgAfTAA/CvQrP4l6ZfajaLL8kFzHjzQPuSBivzexwK7pU4p/lE81I65OSBxURUdcVjaterBCyKQCe9eX+N9XX+yGhj5UnaB6mvI2zvDE57fhUlu2x/JJ+V/uZP6V0fhnxLqPhHV4tQsWzj5ZYSflmT0P8Aj2r3vX/E/h/Vvhpc67c2kN5aeTn7NNjPmHjZnsc9xXgkVno2orcalozSaYtuoEkcx83bnurDHH1rT8Ua1aR+Grbw/olw50e2VpZ5GOHu5j3OOwJzivOoVxKpOQARkjrXtPhsG50MzCUyxlsLu7ACpL+0Saze36KTuVh/CwOQR9DWpbONZ0d5NRkuHSaAW3koCyGQEgtt9enNdKbKXw34OtLGKEyypGQ4jGS3sK811m71e5jhii8IbzKSB5kZMikEdQOVHOcmui0qz1rSigEQSIEK5V9yqfY0njmTVLaG3toZgXuhww64rlbvwf4h03RY9RsXjjunY74iV8zHZsnOfpXKa/Y6tLM0d3Os6oobzMBSOOQQK5e2ieW5RU5Oc/lXonjjxddajqx0+zuHjsrQBH2nG9+9cZLM0gyCeeue9WrCBpOeorYgL2UMtz2ReM+p4FT2mqX2mQSRLdedDcrmeA8ocHg47MKfrWpana29v/Z0ki+cBiPJbOehU+lcbqsF5HPuupmlkfkntXuPwr+EemtY2fiHV3S9klQSwQAfu4/97+8f0q38YfE4Ur4es3wFAafae/Zf6140xNpazTEc449zVuyszaWEfXzONxPqa97+HPiSDWNMTS7twl5bjajf3l7V25sJgSAMj1Bqqx9aytW1JLO3c5GcdzXnGpeIluHZS4PbrXnviG8+1yiFCSqnOa5iWBhIrbTtz1p8sG+LB65yDU1vcmXbDMP3iDg/3vepLqe9GmyWMd1ILV2DtDu+UsOhIpfCl5JZXsqyQNNYyp5d2oj3hEz94/Q+tetR/B+LxJGksdwtnCseFWGPCnPIb34rlfFPwevfD2gTawmoRtHC4WSHYQQM4yDn6ce9dX4Wa0Oh2xs4kSF0yUUYG/o361avbTb8yjj+VanhC5aMz2caqJY2M6bhwQRz9OR1rr45iSS3zMG2jPb3quulictKLtlLH5tpPNQXNtCoS2iB2pyfUn3rB8d2yPbWswBVosEMe1UreWDULRI5DnYNpwelcl42torbTysCKqt1avOPD+jy3t7PclStrYxGeR8cHH3Vz6k4/Wq/JtTKTlpZGJP41LFH5kWFFamkYSXY3ANb2pWZj0Tggbn3vnuOgrlBC/2gi0tJjIg3bVZiSPXj0rrrfwH40vNFtNXgs/8ARZIWKCMhpEU5OdvvXLWmnJc3Btri4uJWbKjK7fLYd+fT0r2b4ZeMY9G+FN5PdNvbT53hiGfvseVArzG5urjUtTnvbly8szl2J9TVK5jE+owWg+5H++l/9lFaDqXKIOxya2NHvzpOpwXcfG04fnrXvdl4ot57KGTzV+ZQetUNb1u3sIinmr5h6gHpXl3iHxOty5UMSgOCq1xE9w1zMSu5cE8Gr2naGbmZDMPkPf1rq5dA0yHSplmiQKRjOORx1rzS5iSJmVeVBqk9q1wQVO1l5UgdKkgl8zMUw2yr1Hr7ivX/AIMXttE15pU/lFLhwwDIOuOhPcH0Ne7Rxoo+UAAccVma1aWl5ot5b30SvbOpWQEZyp7/AFr5+8LeZpOsX+hzFh5UjNHuGDgcfqMGu3dFnt2BHIFZVlepZeI7AO+wzB4mIOM4xXX37NYurB2IIHzE8moI9SuJ18uHCO3AJqQald6IFjt9OS7eU/PKsg3A9+tcz448ciS1fT4NDvJbk/KyCEgL9W6flXLeH/7Um1K5u7xI7CKUJ5cBbJyBjmue8e6tNJOlnkHJ/hPU12HjNhofw/0zSUCiV4UEmB1wBnP4mvHnc/YbcA/3v51paUQ4x39624rVVKkdSa6m+to57OSInCqMKfQgcGvXfh7oGj2vha2eyiiuPOj2y3jRYa5Pdsn+HPA+ldosKxqqKoCjgADoK4Txj8N7TXEnu9MMdjqjggyBflkP+0B39xXz/LY3ejpNostysscM7M4jbKb+hPvQhWGF5X+7Gu5vf2/Gi0jdFeWUAzTNvf69h+A4q6kIzuLDd6AdKkPAzg8+lTRX93DEsaTSBV6DNausajNd3DFQ5Ckgk1zDAvK2ccnvT4mEThvl354NdVolzFdxs6qquhxIgP3fce1bUmy6tzC+MHg15r4h0p7K4cKuVz27is6BcJkVJFLHb3CyyQLKo4ZSPvL3x6Guw0WGKzu4L6wkJik+ZT0I9j7jvX0PoV/HqGlwTp1Zfn+verzxoIyp6E8nr3rwr4qW76N49s9aRR5Uyqr47kcHP1BFa1oyszRBsgjKnPVSMg1R1Dwhq+sWlpqemRJI9vcblHmAFl5B610F7ctJpUEV5E0N/GgM0LDJT64496xGjnmnUW0iiQ/dDE7SffFbFhZ61JEWK6czp1T7Qy/jyKk1PSPEdwAPstlCpA3O0/y/oK811HSdbfX1t7jU7OO2icE+Rklu+Bnt15rj2uLS/wDiBbLcyBbGK4BYn+6vJ/PFaPxO8UDUfEohs5lks44FUFehJ5NcM0gNpGM8qTx+NX9IkImx612CcLG7dAy/zrfmbNs+TjIr6H0iGK30eyhhAEaQIqgDHG0Vd5z04rlPiB4h/wCEd8MzzRti6n/dQ47E9T+Ar5sY7mZ2ySTknOaVlV/LtzySRLIPb+AfzP5VrDTJyAydD68Yp62KwnMkuWPUL2pJEhHr+NR7E7E4qlI2rXbMZp1jXrhVpgt3Bw8me5PSkKBTjPSn2N+2nXyXAVioOGCn7w9K6yXUUjlXa/ySpuXPFNka3v7J5GAcopx+VcIBgnA4zQUDJuBAwOaueHNVFrfNaSP/AKPO3GD9x/X8a9/+HWpF7a5snZT5X7xR3xXdK6zQhhghhxXA/FbRE1nwjLcR7fOtSJFzjkZ5GfxNeYWviS3sNJtElkJvoo2jZUG7j+Ek9Kn0rxbqd1a2ug2t01taIv7x4xh2A5PPbPt6122jok/2+Nizv9l3ksdxPzDPP5VhQ5hvfK3EEt+6atW7jvYpUuokEjjrG/RvbNUdS8aamY3iXQLvzuijIK/nmuBuxqam5v7+RY5XByB0iXv9TXm8cxe5uJx/dZgfTkYqq8jSHkk+lTwWb3HC8GpoVn0+cF4zjPUdK6qO88zT9wkXaCp/UV07zoIVdvmUEEjOM19I6bcJc6fbSxjarxKwX0BFWCxXuD2r59+KHiI634je3hfNtaZiTHQt/Efz/lXErEkUZlnyyKMlR39vqelaWk2Pl7ry8x50jb9nv2/IcfhV651KONcg5NZYu2uZQOmakkyqk5/CgDI5PNdXrOopGDFLGhb0AHFcZcOJJSUUL7VRkkCHBPNVZpCULEkDtS3Oqym10/ktIqOOTknBArT0rUmjtriFm+ZkJ5NZclxHCmXYAVjXGpSXLGGAHDH8TV2G3MduAFbeBnOf4vWvSfC/i6LSfst/dltxjxNEp+Zh6Vt33xkmljeCxt/skQGE2/M/5ngV53qfiDU9Xkc3d7cSxli3lvISKy8jgDir+mXbWDtOBknC/UE816z4L1KKbxRBExzHd2zxEevGf6U3xBFZ6drUmmz3EYnwHjXcAxU9CPepLDxdb2CxQanjbjCzHkH61ZufFmh4eVng2AfKdwrxnx34zt9V32WnZMRb55OgPsK4rKR2ACsDJK3zf7KjoPzqCNd0ij1NdLY26xRgnqRVpgpIaqcsJ8soCVB6lRWrDqIZBD5wP14NfUvhSVX8LaWyMrKbZMY+lUfHHiJPDnha8uwy/aWHlQj/AG24/QZNfNUl3ktJIfck1HaXn2idZW5RPmAPr2/x/Grk+oOf4uaqrI0kmOtXISquSecDrilM+6THepzMEO3bnHen3EjSuzOx3HOSTmsy4n8v0zVeKN5mEj9OuKoX8+DgGsu2nL3m5jwi/L7VI97O8hS3Vmbvtpn2O8umBnfA9M1p2tlHbrkD5u5NSC8kgvCsbHaYyHXsc0iZZVwWGRUoFOyRwMUYxg55pZJcyW8OSNzFuPYf/Xrf8N65JpepWcrEkW06uD/s55H5ZqTxTMPEvie51eQmSDefJRTjAHCn24Fc/qNxeWtqokuXYMcFnGfz9f51zzWMss1wjXkMbRrv2s5HmegUdzWWVIJB6igqQSDVuxj/ANPgDDrzXRkjgDsMChCxXntQx5wx7cVUngDE4z9a6Hwp461zwkztb3jS2aqc2sxLIT7en4VreNfiNB40Glw24aIJF5k0eOBKeCM98AdfeuKv3k8pYEQnzDzj0HarUMTW8CRsCCRlj6+tMebJA6k9qs2wcKWPU1bWTCsT1qvZ3DTSynPCtj8astuLH/GrN5J5G4N94HGKyVje6uANpYZzjFX7mFoYTHkKVHTuKwZUtGYmed1LdQFwQO9Edn4dwd2o3iEjn90DTpRpFnHtstQ83v8ANGRn6mi3lSQjZIjZ7A81aI2/Kc5qlbp5txLJnPOPwqzEuIwB0Ulc/jUuOmaacA+2acgBzkcion3Ld2so5AZkz9Rx/KrqD5yQetZksks2bfdIjIc/Kcbhnmrum+Hb3xBdC00yzu7mR/8AbyAvqfb613c3wI1sokzalalio3qc5U+xrzXUvCup6Trb6ZdWpjljJBJHUeo9axrzerCKVAXDYD4wSPSrNuoGqKD0jj/z/OtMtvk46U/ITPPFMMgdgM5pzAgD5TtPGccf/XqlJdWbI2+dxtOCoUZYe1WLSKKGJG8mVWbJeSVSyBex9q6fT9Z0iaD7OunfbWQh52wMlP4iOnSuxk1XwtBFBFcWkZtX+QsfvKvTnuOv+cVzPifwhFYtBqekzm50q5BaMgZKD3Pp71g/dxjoBUc8h2kA4wKp6M7m0P8AtMxLe+a09692OaiJlupzIxO0nOPWus0eHTray3oWlndNzSA8L2AHbrXFa5d3EV3LGYysij94GbkH0PbOKyodR81WjvIlkjPRt21l+hrPuItrsQDt7VXyRnBPoaASCCDg1uWV7JLZOrEmReN3r6Vds4zHbjHfrzUikB5EJ+8Nwx+tA4HcfWgH1GaIyUcEDP1qUFXguFOdyqJFGO6n/Amp0wORzx+dbHhPwXceM9Znto7xbYW8fmZ25LBiAV/rX0N4U8Gab4Rs3hsFbdIFEjscliM8+3Wt+VA0LhuhU5rzj4p2thF4ClvLqJHukKi3lx8yux7H6Z4r5jlVri+Ej4wPTvUliGnvbhxjjAzWqEVOjcdzVWWXYxA6HipbURrcQm4VjGW5CHnGOaydU1Oe/u2ZSVgGViQcALngVW2mJis7FTjIwM0+PULxbcwCRjAcfuz93j/OKfa3k8EwaDEbE9IweO3Sup0SyFo8tzrLOweMNDAHwXbqCfQCvWfBshu9AktpTbJErkeTFLvAz0PB9+ntXJ+L7fQYtGOt295Da3vKPp7DHmspwSnp615tLqyTwPtVlI9e9S6EUktZCw5VzzntWsbi3BwXXP1q1II44yeFRRyfWtjwtNZ31jeJJb+cYstCPTHp6965a40ubUdQWOO1VZXywCgdT6/0rpdO+FdxNGHnkK5+YovX6Zq5J8K5ADtv5CrDncM4P0rj9Z+HGtaYpljRbqLP3ozz+Vc1PpOoW2fNs50x1JQ1XjkeLO0kA9RWha6k6Da3Sr63KSYI6qatlg6AgdaYkoB5H4U/Kl+OlT2oDXkcbdJMxnP+0CP8KWJiIlDdhjn1rvPhJfC38dpCSAtzC0ZGe45FfQscySPJGDkpgH8aS5byrSRggbap+U968Y+OeqlLTSdJVgMgzyBf++R/WvB24DvnoCal0dGWB5SP9Y38qtzXKoTuHA7VRhLXE5bJ2g8Vs6fpGoX+qQmxsXumiiZmCDPXisqXStWtdSliFpKJiQwUw+p+nFdJo/w11PVmaS+Y2y/wAKCf/rVtT/DmwsbdUd3kc9ST1rD1HQ49FgeW0iUy4Kgv/D7j3rizeTkiOWeUpuyw3ZwfUZ712vhW3XbKy63NBcEF1+zPsLccBjjA+taHiNLDWfCUi2ibbm0bzis0m6U4GHxjqMEE/wC7XmRbAwBirunyYiZC2AW55rYjhtPLXKKTjuaZrWqSateeTAipH0CoMDFa+lT/ANn2yqsSKSpXDfeYEDOBW54ZZp71fOijyD8oc8qPb0+le0W99AllFGiqGwOnersdtG8DM55PasHUrNPLlABAwa4jV5YFt8OACRXkXiC3iS4MsQABPIFYqtirltNgjmtW1kyDETyOQfapG+VhxTo2K5Ip7TNGyN/EmDn6c1bvf3V5KF+47eYn0bn+tanhC5ktfGmjSq23NyqHnseMV9WWyqkA2ps9c9T7mnyMqRszkbQOSa+WfidrX9seMLxg2Y4CLeP6Lwf1zXBXhKWrY6sQtXY3W1tUixyoA/GqV7BeLJGJ7eaESjchkQruHqM9RWhYxCNOa9Y+FVythHdXfGHl8tiTwAB/9eur1TUrS8umWLEzAk/u03En60WzTQo220KsevmPzXO3qymdiy55yAMmuG8RyTM5SSMhWPINchP4emeXfA2Uxn5uDUVpqs2mXBjuraGVBxtdARx/Ot7Sr7T31wzs6RxeTJ5qldyncpBxyQDz69q4iQBZGUHIBwD60sbYOM4q8LggAba2tL04RgSSnazcZPar97ep9raKLZvXbu3JjGO/txXZ+ErBJYBcBixY5Oeo/rXoFvZPHEs0hMaA4BfjNaUWp28hES3cG49t4zUN3HIIZvmDZUjiuI1rRg9k0udzheBn9K8k8VWzweWxUgHrXM1JEcGtKFgJYipwc4rTbDKSSQfpUSkhuaezhgemP1qaZjJBZSE8hDCTnuh4/Qin/aJLC4truI4kgkWVT7gg19gaZeLqGmW12uCs0avx05Gaq+JdRg0rw9e3k5ISOJiMeuOP1r4/vbiS5uZJpGy8rFmPqScmqJt5L3VLSygQySSSBVRepJPSvpDwn8MdM8N2g1HU4Eu79F3s8gysZ9FX+prjvi3oV9qVtbeIV3GG2bYy/wB2Nu+PY4/OvMhhEJPYV6n8JGjTSL+7uWiECz7V8zpkAZ/pXcR39vfXD/ZpflzjgYBqjqV8dMiV1hkaTdwEOMjvnNcZc3niTUZWa2jsraMklWY4b2/GueuLXVEyNVjMwB/1i8lfyqLy0VdqntwfWuU1yykMoYR7s+1b+g+BXk0WbUb+4itrN42EsjHlB24PeuX1/SbKyaO50u7ku7CUlVkkj2MrjqD2PrkViU7ea9r8E6GupmS4+zW8wV1iT7QpZVz1OB1P1q94y8BWcNlcXGjPGl3EcyWqsGVu+Qeq15zPpHiC1sPtMdtcKCN26FySPwHNZNpdazrN1baUlxOz52Kozu69+5NWYNEubqW8WynvWezTfPkjKjdg8A9cjp1res/FviHwtFbW0M39pQXMZeKOZGLrg47c+tY154n8Q+ImkR7r7PDGuXWMFQOcAHHJOeMVz119pVIzNLLJHINyF84YZxkZ96qs25iT39BQvXrWhHakx+b54AXmtWNwwAzkEZB9aH57cVCWKtViObNjKpwDFOko+jAqf6U25+eMg9MV9QfDPVob/wAH6Yqy75Psq5UD7uOD+v8AKqXxf1NdM8A3FuG/eXsiwLk9s5b9BXzHI53EH9a9K+Cfhy3vNZu/Et8uYrFhDACM/vCOT+A/nXvSbrlpELZidSj5PYjg1S+yW+p+FzYXCBleJoJQR6ZBr5T8RRtot7Pp0pBlidk4Oeh4PtWh4Qt7nU9OaF7qaO0SU5jjOC7HBrsVvtS8NlZY7OfyP9o5OP51s6prU11pFveW6lmmGEBHINZeiWGo6lqSQC1nlulXeyMdiqO2T2z+tc5q2u6pJqMqHR5rXyJBG8UjkHcTjHI5+orS/sqc2/mSsARzgdqWCS0t8/aEVvLGSTzkVBp99qGs/wBj2X2VJrO41PLI33eMna38/wAKPixax6ZYQ2SBcPciZABjblSGH5gV5PSV7n8ONWT7Teac0wjeQBosnHPIOP0rv9Tgs7XTA1uiq2zBVV5J7knuc1Q0y5ilt1hcL8p6EVx2taCug+LLnXRYTz2F2oYSWke9oJOM5Uc4OM5Hqaz5vE1nf3PkWz3/AO9YealvZsHc++B+tdj4X8JmHU7nV73JmmUw28bdYIfQ+jHvXmeo3Fv4a8U+INOuYN1peqC2ULDrnn8e/Y1xmrXaXcyLD5YhiXZEqKQAM5rPlWNZCInLoOjEYJ/CmjrVjzVW3KDOW61p2JPkIGUrjIH0qfJweeKhc5zmktTvnaAnAnQx/ieV/UCpd/mwKTwSOQfXvX0B8CLlZPBcsII3QzsD+PrXP/HfUP8AT9K05HJWOJ52Ge7HA/QGvFnb5Hc9Aua6Lwz8QNb8M6ENP08IIjI0pJhDZLe5+lW7j4teOZDIY71Yg+N223QdOBWFe+OfFt7C8Fzrt4InJLIkmwEnrwuK5qV2dyzszserMck12vgNJnubm3trqSAKizSsineFBAYKexIJGa6/T9M0qTxTcXli97Pb/MIoJ84jz3znJOema9I1DQ4LHSLOABROo3E46sRzWNbWr6nLIDNLDdR4G+M4LAccjvTk8F28119sv7ye5kT5lEpwB+FZGuGNI2EfyqBgCvNdSvDudAcHvg9a3fA1u9xbG8ub94bLT5zNHFHwWmxgEnsAO1c98Rb2+u9WtGuiGjaASRsD9/JOT+mMVxlFd5ewXmlWFpBaIft98+wSIclOwUHsTmu8vpdWdoYRqc8MVugEtuyhtzqMMCx56g1CmovA6XCEgHk+4rsdG11JYxmQHI7VuTiVrSZoEVW25G0YLVhL4qOkgy3ukTW9nHnM8kikHHfAORXkPiHxfbav4wiubG18yNTsZsffVuorlvEslu2olbeCOLbnITvWJRUkY5zxV20maTeCTgYwav8AVevPpio5FJDHqB6VWyVlQoSHUhgfQirU8i/apSv3ZcTJ9G5I/PNew/AG+VP7ZtPMGRtkCHrj1rlfixfm98fagN+5bcJAPbC5P6k15/e5S1ij/jnbd/wEcD9c1NnZEFzwBiopHU9GJNUpASxJNRxqXmUKM89K9G+F9wtt4pdW2uskBAVvYg17c91pqtFDBawCd+WcKBt96XxPItzbC5hmUKcInIzmuMfVrzRdW02NWjee7kELKCCST3roZ/EiSQmG5jEcgHXsa8/8SapGJCvmAZ9D0rza5ud80knOM4FVVhneaJBK6RXALYViAcHHI/CvRpPBd94x8HtdWJMt5pS4SMD/AFyHkqD/AHhjIrzbS7ZpdQW2NoJXJ2mNwcgjrn0r1a28H+DJLaJ7pYYrgqPMRJ2wp/OqdxqLWFxbXUOwzQuJI9wzgj2rtpJrbxlph1rTFEd/GB9tts8q2Mbx/snp/wDqrlIwA/2aQYAJ4PUe1XtFb7LftCxBXGV+ldHceKoobyOz/ebjhECRl92e3Aqtqd7F9lMs8V6V27sNCQp9+leU3WrpbaoYtPVJ/PflPK+YZPrjmuQ1GTzdQuH9XNVqKkQdBVq0UrKyeoyKvROQ2CTxSOxO4cGqjHByOo6U7fmNWJ5jODk87T/9f+dd38HNQez+IsUHmbYriF1kBHXAyP5Vg61cvrHiW9mB+a5u3IP1Y/0rDlkS51aSRP8AVR8R/QcCpHIHv9arn5jUMx4ApLUcu+4rgY4rS0m/n0rVYL6Ny3luCfcdD+leow68l7hxctGko2iUHkZ7iq2qaNrmpXBit9VmXSygaIyFUdzjpnOQPeqdqjeGL1br7Dp0l0gwJ5b3zGGeu3ceKrXvjs3epJaS2qskhAdo3zjPp6EVka7KyD5yS24oMmuZnlGOOgqzpXm3UwwC3lrsQD1NfUnhuOx8D+CLVtXmitXKCScsed5/hA6kgcV4P401rTdZ8VXmoaNZ/Zo58b2xgyN3YjtmqFt4iazt0t/IgbZxuZFye/em216LuMCWTdJtwj9Nw/oR3FXdI1y98O6nFqFjJiSM4YH7rr3Vh3Br0bUbO18V6OPE3h5D5sePtlkOXjPfA7iucW7VJYJ4z3wa6u2nQWvmgKrg5Oe9Vr/xitpEIJLK+MRTa4RdysPbnpXlXiDxTLPq7T2tsbaFFKxoy7TkgjP61x55OSaKUDmrsES/ebgDrSW7ZvSw+70q0zjPvQxypPtVcnn+VJxkjsRg/Sr/AIZ1P+yPEtrfMcGMOMj1KMB+pFQm58iKeTP7wJ5aHP8AE3U/ln86qWqbYyT/ABVKxyfSo8gdB3qvMSeT3qazX5Gb14p2fLfafuHp7VpafeFY2tJJNiOwaNzzscHI/CvVfCPggyzfb9bv57+B1DCKKZo3Q/QHBUj0ruB4c8L6ZaNJY6BbBkGWuLlQ7DvklskmvP5f7Ge5vnt7WBBzvkVRuZic9favLdXuHub+QhyU3kgmsiQlmwOR7V6j4Qg07wdpket6uizXpO+1ss8s/Yt6KPX147VieIPEmp+JtRa81G4Z2z8kY4SMeiish5Et4t23fI3Eaf3j6/QUyPw5c3qC5a4hBk5OafdW5sJNqH91ncGA5U+v+eoqRJ/OQ7uHH31B4+o9q3PCviq88Ja1Hf22Xj+5PDniRPT6+hr1TW/C9p4o05PFPhIozSjfNacASHvj+649O9cxp3iS2hDw3CmKaIlXjkGGUjsR2qDVfGOmKjfMhI4wOa8n1nUDqWoyXBGATwPas/HFAqSMZNXCpMZUcU19ttAoXrnOan4IBob7pAxUB47c0dDwOnao1XbP5hHyjJqJ3aUqnoSfxNW1G1QB2GKRj6ntUTsQKrvksB3q9Cvlrs6EU2UZBFQBiOGya9H8I6pqOqaQ9la3rQ3lmAYj13J6EHrippYPG+qXf2S+1MRWrN8xV1XcPoK0L3TrTRNKaN5F4GSobr7k15NqF0s9y5jGFycU2wVjcqy9V5z6e9bc80krh5iTgY3Mc8Cqkl2GcJGuSegJxn6+g/nV62tI5PmaRnmb7xEZY/gOwrbSyj2Dm56Y+6n9TVOVWcE43e9Zs1rJH+8hQhl6AdMdxSJKHjzz9CK674c+PJPCOseXcMzaVckCdevlns4+nf2q78bILi71aPUrXRQlj5at/akLbhOD03Y4GO2ea8iySeSaXGelApuOasQDc2DV0qFUYPNV70AohBz61Ip+Vc+lO6r3qLHPNSAjqe9Vp2IBHrTIVw4J61ZAOT3pj5pMYwTVZVZ5PlGcc1eZlGMn5sUhdSMdTUE7bQMd6fpup3Wl3i3VtIVcAg+hB7GtK58V6hcOr+YyMvTBqheaxfX/ABPOxHpmqAGTita1jFvDucgHqamtrW81qfZboQgPJPQe9dpo3g2xiUS3U7SMeqxg4P1auutbbS7SHYlrDGvrjr+NWkis9g2eVt7YUV4//akef3aSOB6ITUbamh4Mcqg+qmqjzKzM0bc9xjr/APXqMOHBIyPUelaNz4m1mXw5/wAI69yZNO3q6Rt1TGTgH056VzZUrjIIyMjNO4x6UY4oVc1Mm5B8oGfU02TzSOS3PcnFMKgfx8ip0JMaN14qfO5cikK4570DPpmobhdzKMgYGee/NKgxjcCDjP4VIWGePSk61DO+BiokcomADyetSqyyjk4YetNK4PB596a+WXB6ioaKK2tN06OTaCCZW+7j1roIvCLnbLqcwih6+ShyzH3ParkxWCMQ2OYIgMYRsf8A1zWLcXVyGObiUg9fnJqvDql3btmG5lTHox5q8niKUKA9vbyN3crgn8jiqouJQMLFKfT5Mf1pGlGAXgkUjvsqFpl8s7QrH06EVlyuUk3ojL65Oc04sssZIIzjp6UEI+nSYhHmJIC0hboOgUD8zTbCxm1G+gs7dN80zhEHqa7af4PeLYoleO1hnLDJRZMMPqDip9Q+EHiDTdGN8gjuJETfLbp99fXHrXB7pc7RhPUY5pxDbMu276ioTCrKT930zSmZdqgcACnRPk4BqfPBpvc4qCYZwfSggCIEU5TkDFOIwPWqj5eTFW4gFTblce5pHwwIdV+vrUaqOgcEeh7Uh+/sOPY1BIu2Qim1YigDEZJzkdOldfo8L2u2SNY2uWGV8xsKg9TVPUb6SWVvtWv7pM52QRkgH61lsUYf8hKY/wC9GRUZVuSl3v8AXvmo2MwA+ZX/AENH2gjrG2a3hL6np6U0TbuHbGKhm8qX+IbiO3Wsy4Q7Dg8jr71SV9p6496k86SFZY1OFkADD1GcitvwhqK6X4s0q+I4jmH65H9a+sdPnzokEz53AkZJ606K6hntridiqxxA7ifYZNfIur3w1XWr++iWOKOaZmVUGOO1UwM9XYn61FNF84yxCn8ar7SMnsKVTggiraN+NOGMmmXamGGHPV/mH0qBjhSB06ipIeVApZm2rjjJ6VAkDsemKl+yN14/E0uAsZQ4x7VXZdp9M0zJBoZizZNJW1odm15cxRBcgkk/QV1suk24QrNucE7nBO0MT6461l3P2O1XCW0C49EFY81zGWJVAB7VTfaWyRz6imb3H+2PfrSeaPetlmbuvNJ82zdjJ9KazZwGjFV5fJiyG3Fz0VfSsl8bjgYGeho3bkweo4/CtXw8ol1/TIjj5ruJfzcV9Oa94u0vSLMaJa3Uc2pyHy1hiILIT1Zuygeprzrx54/stP8ADj+HNFu/tF1Mvl3NxE25UU/ew3dj046CvHAy54UVPGcngCmymMLj+LtiqpYjNRhsMasIcAEVIpGQCQuTjJpNTuVub1mRQI0URoB6Diq3Jj57fyqSA/L16VIi+ZLn06VOpCvhuvWhmyMZwO9QEov1qvLJvGMVH9aSnRxtK4VRkk4rq9KvrDSrd4zcqZy3LKpwAO2frVqfWoLkMFuACe+aw7tnds+YHHbBqiSepphYjrQHBPXin7l9q0Ggmfk3DHPoKjMDY+aZz+OKQIqn5UeRvc1IsEsmWJVe2FGcfjVabTwwYpgYGaziCpIIwakhkeJ0kjZkdGDKynBBHQ1I0s1xK8ssjvJISXZjksT6+tb9t4E8U3UKTRaDfeU5UCQxEDkjB+nNdVdfBHxdaWM10Y7OYxKW8qGbc7+wGOtcNe6Vf6fcG3vree2lHWOVCh/WoPKRRkDn3qvMmD2wfSq5XBBqVWZTgDJ9KbLIWb6U1Ac5qQ7ickcUQL8xB6fzq7GyrwBzUdwu4B0BDCoxMCpDDBqA81YtdLvb8N9ltZZsdSiEgfU9BT5NFvYf9csUX+/KuR+Ga6DTPB+m3lhc3E/iC2h8hQzMoyMnsB941BplpodpZ+fcXdzLfpOCkKw4iZPUsefwq9daxZiM7bNduMYCCufuZbKdiUjMbfTiqbJtI2vx+lM3sMjGaQtuGKPk+vvSYHqa0l2qcBzj0qUEHHFSHjGMn0qRGIBAHJpJUxC3ris2eyAgDhyz4yQRjB9KoxglwuOScV9FfCHwFpsGmrrl9BFPcucQq4DeWB3I7E16fqHiLRNJO3UNUs7U/wB2WYKfy61WtvGXhq+bbba7p8jeguFB/WuD+N1jb3fg+PURgy2twmxhyCr8Hn8q8J03RNS1y6+z6ZZT3UvUrEpOPqe1dRD8HfGt1ESdMWLHQSzqD/OuH1PTLvSNQn0+/gaC6hbbJG3UGqJkI479M0sUWSGbp6VMygdhTWwB0+lPgQjp1NTBAoyDzUbuV6mq0jqT71f0LTxqmqRQSFhDyz7epA9P5fjXpaaPc3gWwiH2WCNcrCPlUD6evvTofC2lJZzy3tuieUCWmZyeB3NecXUlu19IbaMLH0XPUj1qOR9nXkmoC0h5BIppuHBO9FYeuOab5yN1GDTN6UM6kVESBSb/AHrRWVScH5T6MKtKy44I+tPHOCDThJg5Han79wwR1pkoyuFH/wBeqcUCC4jmPyhXG6vXIfG8fhbwBcPYSodRu5fLiI6pxy2PYfqa8furme7uHuLiR5ZXO5nc7iT9agUq5IbGatjWNTtbGXTxez/YphiSAuSh5z0PT8K9V+HfxU0jwnoiabc6NIOS0lzA4LSE92Bx/Ova9G8W6Prugf23bXAisgxVpLgeXsYdQc1xWr2Hhb4gpf8AkTQXfIQTxDEkTgcYPXH6GvA/FvhK78I6rHBO4lgmXfDOFxuA4II7EHqKyFUnoatWmmXOo3kdpaQyTTyttSOMZZjXrnh79ny7niSbW9SW2LDPkW672HsWPFdLe/s/6KbMrY6neRXOOHlAdT9RgYrxLxf4V1bwdqRs9ShwDzFMnMco9Qf6da5d2Zmp9paSXl5DawgGWZxGgZgBknA5PSvUdL8B3/hO6VtTaAy3CBkED7wqg9zjrmpfEfi/+yrn7PaqpvAoJkbog9MdzXF6n4h1TUrc291OzQk7iqAKCfwrDbAOQzD1yKc8m4Y9KQtx1qImmNgnJ61GaO/XFAI7DNGD6itl0jul3IQT0w1VJFaEjAKg9jyPzqaGbeD+VTjG0Y64pckLj/Ipdx6ZpjKrRspOOKpu6rGEcuzjgZPSlVQCMoTkUjQI/wB07W/umo2RthRhnH5ipLM7kZT95f1FepeAbiG98MRw3khS0sppMhvm3yMQRtXu2PyqzffZl1CO80uGS1uomB87zeTg9xjBHtitLW51+JGmR6Nf3drZ6ikyNbzNH8hAU7yT78ce1eZnwdqFp4g/s6doxEhDNdjPlFOoYHryO3Wvb/DWr+FvDwaTTdDhRwm3zIiDK3rkt6/Wu68O+K7bxFbvJBFJbPE2JILjAcehwD0PrUfiPxbZaJYyys6lkXJz0FeVXceqfF0tZ2l5axafFJumuGIZh7InX8a8r8a+F7PwvqjWNpq8OoOhIkVUKtER2bt+VcsqkEN37V6p4Z8cS6ktuPEksaW1upiS428uAOQwHJPTnvXH63dwalr15PCrCGR8oHHIXtms/KqcAHFQOQT0qLAz60N8q4zxULHFRFiaOvf8qXAHNKoZzhRx61J5SDrk+9aCMlwBJC3lzAc+/wBaetwpJhuUCsfXoajmsmi/eQHKnkr6UsMu/CngirHOCfWmYIzmk5/CoHjDy7sf/Xp9yuBEwXuRj8KjeNXi3Rk5/uk1DHMSuWOWX17ilfEM6yqRscV2HhAXN3JFYhwix4KhewPzFj7nI/IV6Kml2tvfQ29xgJIvyFv4iOtZfjjSjBpZvrBAktswYEDsD1I70zUYLyC2W5uJ/MjZQWk/vEiszWUutE01rmJcwyKCT3Q9j+dQeBPEeoXvxAsDGJ2jKsJlh7rjkn26fnXuen+G7XW1up9UiWaKZyNjdCP8/wAq898cadofw8uJ7rRBGusXsvmRwICFhTnluc4yeB0J7V4zc+dOzzSl3ZyWdzyST1P51DHZoXyxJUdPerO3Hso7CqmSZmPqaH6/MagJ6elMJJAFRs+O+aj5c4AzTmjEf3zk+gpoJchUXmniIKcyHp2oafgBegpgZ8cCrBglhIkUkEd6sRXMU6+XcABugJqRWmtG4zJD+ZFSDybkbkOG9qcoKMFkH0PrUm0BsimmPkkc+1IE2kcdaddLiOE9SX5/Kq8yCJWOccgEj9DWcQVk5655p+c2bDuj8V3nwtiH9ovJ5YzhlznrjB6fjXp/iW2t5NKKysFYEMhBwyMOhX/Cq9qg1vw8z7xIuzbxzvz6VymmSXeq61b+FLxWjS1+d2PDSRj7o/oa1fiEqweHLtFAIC46cDmvMPCPim78G6zJcRwwSiaHZIkykgqcMMYIPpXZL8XPGDysYru2ggIKrDHbrhR7E96wkjvdb1ET3TyzGRsyzyknPrzVbxLeRy3C6dZIqRJw7L/Ks6LaI8hfYVESRnP5VVOQxNRu2evWo2b3qJpCRioyVGecn2pNzMQFH4CpFg2nMxx7Chp1HES7RULMWOSafDH5j4JxVvZIvHlxN7kda1iieX8wyKyry2AJZRiktL94GCSfMnr3FW2t45R51s+1vboaRZyG8udNrdj2NW4wTz1X1qbYC2OD9aPLwvrmi6i/0eJl/hbNVZYfNEif3ov5Vn3cOwQSY4lTP41T3YRh6muw+HWrjTdb2yH93IMewJ/yK9N8ZWc2o+Hp47Rld3Tci7sc+x9ad8Obe98O+HrK4kjMsjEmS0/5arknkA9PpVrVtNv9S8ep4gt0is47e2KSxFsySL1yccCuZ+IGsW50UJHIri4TO4Hr/kV46C0kyAnPQD6VuxDJCjGB0Fact3cSRBWlbYo4UcAVUMQVfNI5YcU1RiILg8VXfGCOKqueMDjFQSqAu7cDVVmyaZgscDJPpUvkBFBkYA/3R1pDMEBWNQPeoixbqaUIzHgU4wuvJXircSI68Ywf0qXbMvAYHHetKQ5NU7nG08EVktyxq3aw3scX2mGKQxDqcZFaUF1bXy+XIArH+Fu/0p5gksWyCZID0z1FXoY1mUMp6/mKl8nC8802QZjAIGAeagcJHcx8g4jINY1/KphjhH8Dkj6Vm7SzYFb3hu5t7DUT9sT/AEeZPLY9Mcg5r1ltYfwrbhpx9rspFDWtwwyP91j60zSvGOveI0dNGsIztOGlLBET6sf6VbtNCjt7i5v/ABHromnmXDWls58vA7Me9eXeKludav8AU7y2CmwsGVTg4AB4GBXNWEJlucjovPNdBDEd64H68VZuk2wNjOapu+VCgn8ajaQDI71WlcEcn8BVWWQBeaqM7SNtVcn0FOFtt5ncKPTvSNcKgKwrtHrUDMWOSc0mKljgZ+ccVcRVjGAPxp4OR04pnlYbcnfqKnV2CgFRmrxXB5NUb87U29M+9WfDfhm68RXe2MbYEIEj/wBB7161dabZaZp0FkiIA+2NUA5bPAHvXEeKPApsIJL60OMH/VY+8fauasdTdAYZl81RwVP3h/jWlbtDnzLSTK/xIeCPwrRRw6Zx14NJNDhMDk9axb35ct0OO1YMjFmJqSCIsc4q6Y9sf3SR0Hoa7bwX4os5IToGuwrPZyDbHv7D0z/Kup1vQ9E0OzX+zNels/MXIiOHH64Nctb+FfEev3ZEF3cLZYybiSEoG9gOp/lWN4x8PweFLVLJdQnubm4O+RT8q4HfA6/jWRo1sxt2fAyx/HFaIjIkI3n/AL66VYlUtbHgHI4xzWJJKFPXmonmA53j8KgaTIOCB9TVdjFkmSQt7LTTdFRthQIP1qE7mO5j17mk69OaQc8Ac1bhtxjLflU4X5cYpNvFHPam72Dc9af55rYbG3JrGut090scYLEnAUDkmvZPA9rFomiqswVXA3Pngknqa2vDNi3iDWbjXZlAs4Mx2gPQn+J/6D8aNRgk1zVxY2w/0eD5riUdFHZR7mvOPHmg2VvdRRafGBdDgxxjk1xkVxMk3kzRF3XjPRl/H/GtlFvUUN9nuMEdTGf6UPqLxLiSORfZ0IrLvb9ZQQO/vTdP01rtvMcYjHc960jaRRjCoWPbFQPazc/u2AHbHeu1+GsPhKFL+98TeV50TqsQn5VffHrmuqv/ABr4Kwsy2du0kTfKyAHBHcVkar8YYlhMOmwMARjdtxVPwtoel/ECe4vNfv2a8kGLe3gfDIo6sf8ACsjV9BXw3qs2mwzedFGRtkPUg84PvWW0RmuUVVwp5JrWKIg2DGAKxr3S7edt2whz/EhxWNcaRJHkxS7gOzDBrOlt5Iv9YpA9etRDbjnJpdwHRRTScnJpKt2kO4Fz0FXMduaCO2Kbjg009Rx+VBjBUfrTPLFbU+1FO49Kp6DG1x4ksxGORLuJPYCvQvGmq2dhaQWqPtkkIVivJC9zW9J460+PRLPSNB2yTSIIYIxxg4xz/M1v7YPBvhdlmm868ceZM46u5/yAK5m4gTw/o1zrepqG1W6+fy2/5Yoeij36Zrx5rj7fqpkYBBNKMgemeleq6dCIbVIweg7U67TeAGVWyO/NYk+lQSOGNnF7nA5pslrBEAwjUL6Z4Brn9Vub7zjFagKnbZwTWObvUY2w7SbgejVQlkcysznDscnNJ5hxj5frRu/2hTopZInDRyuhBzlGwR+NdXpV6s1s8tyf3YPDSMWLeuSetXIdX01n2xygH1xVx9pkIyCTSLbh2wBjHY0XNnEkR+XNchrCxRyMiv8AgR0rFK4PXIpMZNNpyKWcACtaOIqgQDn0pwGOfTtTScE9s0H1pO/vUjoMYA5qMpjjFad8vlwsSCCRUPhm40+21RzqUskMLxMqyx9VbqKztUu2vbx5DK8ig4Rm6kUywv7jTb6K7t32zRnKnGa3NQ8b6tqVzFcSuu+NlbGOGKnIyKg8ReLdT8SzeZeOAMfdTgVS0aD7TqsCE4UNub6DmvWbOcIhJGc0sr+YuFIDGsi+trpwQspUe1Yc+nTqhH2h8k55NY9wLu1fLuGHqetRSakrEyNGGfGD/jUenavfW1zL9mlhj8xWyJEUjgdsjg8Vet/FmsRnP2i2ZQPuSW0ZB/DFPl8Vag9uAI7AHcR5gtI95P5dKoT63qDZUzxYIwdkKDI/AVDAkuqzBJJhuAztAAzz7V0llDFBA0YQAKcdKHvLa2By6q3pnmrNhdmV1K5IJ60/WbhoI+oznkVw+oTrcylweT1FUCMHihepPtTauWcWSHI47VeJK4OaVeRzSHmmZO3BqPPOc9qlR/lzmjcp5w1a+rf6uufkXD4qMqMA+tR44zSjril6irenzvBdq6YyeDXqlud0SnpSy8Lx17H0rPfUJDK8TKGGcZqrNhsn0rn9UO5TnqGFYbDgn3NQxorNg1MIk9Kmgs45I5HJPy4xUYtEKZyenStDS7KL7RcSfNmFQyYOD1qOa8nu5TGH8pO4XvWhaafBEm8rvf8AvNWjZybcqAMDpWdr8zuFBPUE1yzjBzTDwKZjj9KCMc+tatoo+xo3PSnsvT3pyDJzUoQFfSqsgw2AaiPA/CnR88UuK//Z;" parent="d-g0QsOcz5RB0tyn-y7D-1" vertex="1">
          <mxGeometry x="96.14" y="216.75" width="97.71" height="136.5" as="geometry" />
        </mxCell>
        <mxCell id="pqBkNSlc373LuyqeUZDk-1" value="" style="whiteSpace=wrap;html=1;aspect=fixed;" vertex="1" parent="d-g0QsOcz5RB0tyn-y7D-1">
          <mxGeometry x="460" y="370" width="150" height="150" as="geometry" />
        </mxCell>
      </root>
    </mxGraphModel>
  </diagram>
</mxfile>
